<svg width="810" height="128" viewBox="0 0 810 128" fill="none" xmlns="http://www.w3.org/2000/svg">
<path d="M20.1607 46.4297H13.8998C6.22313 46.4297 0 52.6528 0 60.3294V66.5904C0 74.267 6.22313 80.4901 13.8998 80.4901H20.1607C27.8373 80.4901 34.0604 74.267 34.0604 66.5904V60.3294C34.0604 52.6528 27.8373 46.4297 20.1607 46.4297Z" fill="white"/>
<path d="M66.7728 46.4297H60.5118C52.8352 46.4297 46.6121 52.6528 46.6121 60.3294V66.5904C46.6121 74.267 52.8352 80.4901 60.5118 80.4901H66.7728C74.4494 80.4901 80.6725 74.267 80.6725 66.5904V60.3294C80.6725 52.6528 74.4494 46.4297 66.7728 46.4297Z" fill="white"/>
<path d="M113.427 46.4297H107.166C99.4897 46.4297 93.2666 52.6528 93.2666 60.3294V66.5904C93.2666 74.267 99.4897 80.4901 107.166 80.4901H113.427C121.104 80.4901 127.327 74.267 127.327 66.5904V60.3294C127.327 52.6528 121.104 46.4297 113.427 46.4297Z" fill="white"/>
<path d="M160.1 46.4297H153.839C146.163 46.4297 139.939 52.6528 139.939 60.3294V66.5904C139.939 74.267 146.163 80.4901 153.839 80.4901H160.1C167.777 80.4901 174 74.267 174 66.5904V60.3294C174 52.6528 167.777 46.4297 160.1 46.4297Z" fill="white"/>
<path d="M20.1607 93.0371H13.8998C6.22313 93.0371 0 99.2602 0 106.937V113.198C0 120.874 6.22313 127.098 13.8998 127.098H20.1607C27.8373 127.098 34.0604 120.874 34.0604 113.198V106.937C34.0604 99.2602 27.8373 93.0371 20.1607 93.0371Z" fill="white"/>
<path d="M66.7728 93.0371H60.5118C52.8352 93.0371 46.6121 99.2602 46.6121 106.937V113.198C46.6121 120.874 52.8352 127.098 60.5118 127.098H66.7728C74.4494 127.098 80.6725 120.874 80.6725 113.198V106.937C80.6725 99.2602 74.4494 93.0371 66.7728 93.0371Z" fill="white"/>
<path d="M113.427 93.0371H107.166C99.4897 93.0371 93.2666 99.2602 93.2666 106.937V113.198C93.2666 120.874 99.4897 127.098 107.166 127.098H113.427C121.104 127.098 127.327 120.874 127.327 113.198V106.937C127.327 99.2602 121.104 93.0371 113.427 93.0371Z" fill="white"/>
<path d="M160.1 93.0371H153.839C146.163 93.0371 139.939 99.2602 139.939 106.937V113.198C139.939 120.874 146.163 127.098 153.839 127.098H160.1C167.777 127.098 174 120.874 174 113.198V106.937C174 99.2602 167.777 93.0371 160.1 93.0371Z" fill="white"/>
<path d="M95.6472 6.40039V27.7153H95.5082C94.4385 25.4007 91.024 23.7025 86.975 23.7025C82.9259 23.7025 79.5175 25.4007 78.4478 27.7153H77.7407V6.40039H78.5022C79.6565 8.58205 83.0105 10.1593 86.9689 10.1593C90.9273 10.1593 94.2754 8.58205 95.4297 6.40039H95.6472Z" fill="white"/>
<path d="M53.05 31.4715L74.365 31.4715L74.365 31.6105C72.0504 32.6802 70.3522 35.871 70.3522 39.92C70.3522 43.9691 72.0504 47.6373 74.365 48.707L74.365 49.4141L53.05 49.4141L53.05 48.6526C55.2317 47.4983 56.809 43.8845 56.809 39.9261C56.809 35.9677 55.2317 32.8434 53.05 31.6891L53.05 31.4715Z" fill="white"/>
<path d="M49.0413 52.8008V74.1157H48.8237C47.754 71.8011 44.4181 70.1029 40.369 70.1029C36.32 70.1029 32.9115 71.8011 31.8418 74.1157H31.1348V52.8008H31.8418C32.9961 54.9824 36.4046 56.5597 40.363 56.5597C44.3214 56.5597 47.6694 54.9824 48.8237 52.8008H49.0413Z" fill="white"/>
<path d="M6.37451 78.0488H27.6895V78.2664C25.3749 79.3361 23.6767 82.672 23.6767 86.721C23.6767 90.7701 25.3749 94.1786 27.6895 95.2483V95.9553H6.37451V95.2483C8.55617 94.094 10.1335 90.6855 10.1335 86.7271C10.1335 82.7687 8.55617 79.4207 6.37451 78.2664V78.0488Z" fill="white"/>
<path d="M142.273 6.40039V27.7153H142.134C141.065 25.4007 137.65 23.7025 133.601 23.7025C129.552 23.7025 126.144 25.4007 125.074 27.7153H124.367V6.40039H125.128C126.283 8.58205 129.637 10.1593 133.595 10.1593C137.554 10.1593 140.902 8.58205 142.056 6.40039H142.273Z" fill="white"/>
<path d="M20.1607 0H13.8998C6.22313 0 0 6.22313 0 13.8998V20.1607C0 27.8373 6.22313 34.0605 13.8998 34.0605H20.1607C27.8373 34.0605 34.0604 27.8373 34.0604 20.1607V13.8998C34.0604 6.22313 27.8373 0 20.1607 0Z" fill="white"/>
<path d="M66.7728 0H60.5118C52.8352 0 46.6121 6.22313 46.6121 13.8998V20.1607C46.6121 27.8373 52.8352 34.0605 60.5118 34.0605H66.7728C74.4494 34.0605 80.6725 27.8373 80.6725 20.1607V13.8998C80.6725 6.22313 74.4494 0 66.7728 0Z" fill="white"/>
<path d="M113.427 0H107.166C99.4897 0 93.2666 6.22313 93.2666 13.8998V20.1607C93.2666 27.8373 99.4897 34.0605 107.166 34.0605H113.427C121.104 34.0605 127.327 27.8373 127.327 20.1607V13.8998C127.327 6.22313 121.104 0 113.427 0Z" fill="white"/>
<path d="M160.023 0H153.762C146.085 0 139.862 6.22313 139.862 13.8998V20.1607C139.862 27.8373 146.085 34.0605 153.762 34.0605H160.023C167.699 34.0605 173.922 27.8373 173.922 20.1607V13.8998C173.922 6.22313 167.699 0 160.023 0Z" fill="white"/>
<path d="M233.718 0.291016H229.216C221.983 0.291016 216.132 6.15289 216.132 13.3752V19.2702C216.132 19.5135 216.132 19.7569 216.154 20.0002C216.143 20.2877 216.132 20.5864 216.132 20.8739V122.505C216.132 125.027 218.167 127.062 220.689 127.062H233.696C236.218 127.062 238.275 125.016 238.275 122.483V4.84779C238.275 2.32608 236.24 0.302076 233.729 0.302076L233.718 0.291016Z" fill="white"/>
<path d="M805.384 0.32143C791.968 0.39885 728.582 -0.176276 715.841 0.575813C710.62 1.57122 706.517 5.75196 705.61 10.9834C705.334 13.9033 704.858 17.3098 706.042 20.0306C706.882 21.579 708.63 22.5191 710.145 22.5191C713.751 22.5302 737.032 22.5191 745.029 22.5191C746.046 22.5523 746.455 22.3864 747.053 22.7735C747.406 23.0279 747.86 23.415 747.904 23.8685C747.904 24.3109 747.904 25.5717 747.904 27.5625C747.904 49.1298 747.904 119.085 747.904 122.337C748.336 126.33 751.72 127.38 755.27 127.06C757.914 127.06 762.061 127.06 763.986 127.06C766.983 127.358 769.759 125.378 770.024 122.481C770.069 118.433 770.024 46.6855 770.036 25.5607C770.036 24.7864 770.036 24.4215 770.036 23.9238C769.969 23.4039 771.186 22.3422 771.927 22.5412C775.024 22.5412 790.054 22.5412 798.703 22.5412C802.464 22.4638 803.515 22.7403 805.793 22.3753C809.465 21.4352 810.217 18.272 809.952 14.5116C809.974 12.0562 809.941 9.00363 809.952 6.66995C810.261 3.89385 808.525 0.830196 805.483 0.34355L805.384 0.32143Z" fill="white"/>
<path d="M552.873 2.95476C551.336 0.399873 549.179 0.0459482 546.016 0.23397C543.693 0.23397 541.017 0.267151 538.761 0.267151C535.863 0.278211 533.164 0.17867 530.3 0.410933C523.066 1.15196 519.284 7.8544 517.426 14.4352C517.094 15.6297 516.994 15.9615 516.895 16.3486C515.446 20.9385 484.068 117.129 482.796 121.287C482.343 123.378 483.637 126.253 485.993 126.773C487.652 127.304 489.808 126.961 491.866 127.049C493.779 127.049 495.803 127.049 497.716 127.049C500.835 127.094 502.638 127.204 504.507 125.003C504.939 124.45 505.237 123.953 505.425 123.366C508.213 114.839 515.8 91.5243 516.751 88.6487C516.983 88.0736 517.569 87.6975 518.2 87.5869C522.9 87.4984 530.278 87.5869 535.343 87.5537C537.024 87.5537 537.677 87.6201 539.159 87.2662C545.087 85.773 545.651 80.4199 545.352 75.1885C545.751 71.0299 543.66 66.6501 539.369 65.6325C536.659 65.0021 534.403 65.4003 531.328 65.2897C528.807 65.0574 524.825 66.1856 524.913 63.5864C526.871 57.448 535.73 30.3507 536.869 26.8225C537.002 26.4797 537.135 26.4022 537.268 26.723C540.873 38.0265 558.027 91.1593 563.823 109.331C565.017 112.915 567.506 120.413 568.424 123.123C568.734 124.074 569.143 124.826 569.928 125.578C571.366 126.906 572.959 127.027 574.938 126.961C577.803 126.961 583.587 126.961 585.6 126.961C588.034 127.138 590.677 125.59 590.964 122.99C591.086 118.788 580.424 89.622 570.536 57.6029C565.404 41.6321 556.357 13.3181 552.918 3.02112L552.862 2.93264L552.873 2.95476Z" fill="white"/>
<path d="M353.407 0.300878C343.475 0.256638 335.589 5.05674 335.622 14.9003C335.622 17.0459 335.622 81.1173 335.622 83.274C335.622 83.3846 335.511 83.7828 335.036 84.0924C334.383 84.4574 333.72 84.1809 333.487 83.8712C333.111 83.2851 329.318 77.2352 323.942 68.6746C315.537 55.2587 284.933 6.52773 282.799 3.11015C281.87 1.89354 280.365 0.699043 278.751 0.44466C277.556 0.123916 276.362 0.367239 274.636 0.289818C272.867 0.322999 271.152 0.201337 269.427 0.41148C262.946 1.18569 257.98 6.73788 257.947 13.3629C257.648 15.6192 257.759 114.784 257.747 120.425C257.725 123.61 260.546 126.552 263.775 126.53C265.335 126.63 270.146 126.486 273.254 126.53C276.605 126.851 279.658 125.623 279.868 121.896C279.868 119.385 279.868 45.9903 279.868 43.0815C279.835 42.7939 280.1 42.3515 280.753 42.075C281.261 41.9533 281.859 42.1635 282.024 42.4511C282.467 43.1589 286.349 49.4964 291.724 58.2339C305.251 80.2435 328.134 117.483 328.942 118.799C328.986 118.877 329.351 119.695 329.506 119.96C331.452 123.743 335.412 126.597 339.957 126.962C341.882 127.072 344.094 127.083 346.041 126.962C352.323 126.42 357.355 121.354 357.886 115.116C358.107 111.632 357.963 5.64292 357.963 5.64292C358.019 3.23181 356.205 0.45572 353.55 0.300878H353.396H353.407Z" fill="white"/>
<path d="M467.308 71.2846C457.365 58.3 438.883 55.8446 423.598 51.4316C414.131 49.1201 399.354 44.4416 402.175 32.0654C405.493 21.6135 420.601 20.8836 430.599 22.6974C437.777 23.8809 442.445 29.5326 447.566 34.1336C455.739 42.0305 468.502 37.142 465.328 25.1528C464.311 21.5914 461.999 18.2734 459.422 15.4862C443.927 -1.49109 415.845 -3.55934 395.826 6.1404C380.917 13.3958 374.469 30.5944 378.948 46.2113C386.381 69.9795 415.06 70.3334 435.079 77.2792C445.475 80.5862 451.293 90.85 444.214 99.8419C440.697 104.299 434.327 106.356 427.558 106.788C417.493 107.352 407.683 105.438 402.805 97.3754C400.715 94.1127 399.399 90.2306 397.209 87.0342C394.134 82.0019 387.343 79.7898 382.233 82.9973C372.81 89.1356 377.621 102.894 382.764 110.592C388.35 118.921 396.645 122.626 406.544 125.059C427.071 129.571 453.848 128.465 467.153 109.907C474.895 98.8575 474.962 82.4996 467.407 71.4173L467.286 71.2514L467.308 71.2846Z" fill="white"/>
<path d="M682.322 80.0323C681.227 76.3604 684.124 73.9382 686.27 71.4165C688.858 68.2201 690.993 64.6809 692.596 60.8872C702.761 37.5946 689.665 9.30278 665.234 2.16899C659.35 0.465734 655.268 0.17817 648.787 0.288772C636.654 0.587395 625.439 -0.419077 618.626 0.908139C609.645 3.00956 602.932 11.7139 603.065 20.927C603.197 33.2922 602.965 101.987 603.065 120.225C603.153 124.859 607.168 127.569 611.614 127.071C614.169 127.071 618.847 127.071 619.909 127.071C622.398 127.149 624.787 125.324 625.13 122.791C625.362 121.099 625.152 118.776 625.218 112.051C625.329 88.4823 625.019 53.3664 625.329 29.6534C626.136 24.3335 630.815 22.0551 635.847 22.5528C639.121 22.5528 645.148 22.5528 648.986 22.5528C653.543 22.5086 656.198 22.3869 660.257 23.8137C676.272 29.388 679.313 51.6078 665.444 61.3407C660.854 64.8025 655.103 65.621 649.495 65.3334C646.83 65.3555 645.115 65.2781 643.357 65.3777C639.928 65.5989 636.864 68.3418 636.4 71.8257C636.278 72.6442 636.278 73.3078 636.289 74.1152C636.356 76.7032 636.146 79.2802 636.411 81.3264C637.019 85.5513 641.078 88.0288 645.16 87.5975C648.19 87.5643 650.944 87.6417 653.853 87.5753C655.954 87.5753 658.111 87.1661 660.168 87.0002C660.677 87.0002 661.363 87.321 661.517 87.7412C662.059 89.3118 672.943 121.618 673.717 123.897C673.971 124.859 675.287 126.518 676.526 126.872C678.163 127.425 678.605 127.171 680.043 127.215C683.306 127.193 690.163 127.16 691.535 127.149C693.006 127.171 694.676 126.496 695.527 125.224C696.39 124.107 696.567 122.415 696.158 121.088C695.848 120.269 685.02 88.1173 682.355 80.154L682.333 80.0545L682.322 80.0323Z" fill="white"/>
</svg>
